<svg xmlns="http://www.w3.org/2000/svg" viewBox="0 0 420 280" fill="none">
  <defs>
    <linearGradient id="rm-card" x1="58" y1="38" x2="348" y2="248" gradientUnits="userSpaceOnUse">
      <stop stop-color="#F8F3E8"/>
      <stop offset="1" stop-color="#E8EFE8"/>
    </linearGradient>
    <pattern id="rm-grid" width="18" height="18" patternUnits="userSpaceOnUse">
      <path d="M18 0H0V18" stroke="#17362B" stroke-opacity=".08" stroke-width="1"/>
    </pattern>
  </defs>
  <rect x="18" y="18" width="384" height="244" rx="30" fill="#10251E"/>
  <path d="M0 223c62-54 114 27 181-20s109-26 176-73 97 10 97 10" stroke="#D6A958" stroke-opacity=".18" stroke-width="2"/>
  <path d="M-14 188c71-47 108 14 171-19s120-20 178-66 99-4 99-4" stroke="#D6A958" stroke-opacity=".12" stroke-width="2"/>
  <rect x="48" y="42" width="324" height="196" rx="24" fill="url(#rm-card)"/>
  <rect x="48" y="42" width="324" height="196" rx="24" fill="url(#rm-grid)"/>
  <g opacity=".9">
    <rect x="68" y="66" width="112" height="72" rx="14" fill="#FFFFFF" stroke="#17362B" stroke-opacity=".14"/>
    <path d="M80 118c16-4 13-30 31-30s14 31 33 18 17-26 27-20" stroke="#B9663C" stroke-width="4" stroke-linecap="round" stroke-linejoin="round"/>
    <circle cx="80" cy="118" r="4" fill="#17362B"/>
    <circle cx="171" cy="86" r="4" fill="#F8F3E8" stroke="#17362B" stroke-width="2"/>
  </g>
  <g opacity=".86">
    <rect x="68" y="151" width="112" height="66" rx="14" fill="#FFFFFF" stroke="#17362B" stroke-opacity=".14"/>
    <path d="M82 199c17-28 27-9 37-31s24 25 48-3" stroke="#4C7A67" stroke-width="4" stroke-linecap="round" stroke-linejoin="round"/>
    <path d="M82 207h84" stroke="#17362B" stroke-opacity=".16" stroke-width="2" stroke-linecap="round"/>
  </g>
  <g>
    <rect x="195" y="66" width="155" height="151" rx="18" fill="#17362B"/>
    <circle cx="272" cy="115" r="37" stroke="#F8F3E8" stroke-opacity=".18"/>
    <circle cx="272" cy="115" r="24" stroke="#F8F3E8" stroke-opacity=".13"/>
    <path d="M272 78 294 102 286 137 252 141 244 106Z" fill="#D6A958" fill-opacity=".2" stroke="#D6A958" stroke-width="2"/>
    <path d="M272 91 287 106 280 129 258 132 252 109Z" fill="#B9663C" fill-opacity=".25"/>
    <g transform="translate(217 168)">
      <rect width="111" height="7" rx="3.5" fill="#F8F3E8" fill-opacity=".12"/>
      <rect width="82" height="7" rx="3.5" fill="#D6A958"/>
      <rect y="15" width="111" height="7" rx="3.5" fill="#F8F3E8" fill-opacity=".12"/>
      <rect y="15" width="36" height="7" rx="3.5" fill="#4C7A67"/>
      <rect y="30" width="111" height="7" rx="3.5" fill="#F8F3E8" fill-opacity=".12"/>
      <rect y="30" width="96" height="7" rx="3.5" fill="#B9663C"/>
    </g>
  </g>
  <circle cx="353" cy="55" r="19" fill="#D6A958"/>
  <path d="M346 54c2-7 12-7 14 0-1 8-11 12-14 0Z" fill="#17362B"/>
  <path d="m340 52-7-4 6 10M366 52l7-4-6 10" stroke="#17362B" stroke-width="3" stroke-linecap="round"/>
</svg>
